HIERARCHY
ROOT Hips
{
	OFFSET 0.00000 0.00000 0.00000
	CHANNELS 6 Xposition Yposition Zposition Zrotation Yrotation Xrotation 
	JOINT RightUpLegDummy
	{
		OFFSET 0 0 0
		CHANNELS 3 Zrotation Yrotation Xrotation
		JOINT RightUpLeg
		{
			OFFSET -3.52197 -3.41223 0.04002
			CHANNELS 3 Zrotation Yrotation Xrotation
			JOINT RightLeg
			{
				OFFSET 0.00006 -17.42390 1.60435
				CHANNELS 3 Zrotation Yrotation Xrotation
				JOINT RightFoot
				{
					OFFSET 0.06153 -16.50078 -1.63901
					CHANNELS 3 Zrotation Yrotation Xrotation
					JOINT RightToes
					{
						OFFSET 0.00298 -1.73825 3.34613
						CHANNELS 3 Zrotation Yrotation Xrotation
						End Site
						{
							OFFSET 0.00480 -0.05416 3.85043
						}
					}
				}
			}
		}
	}
	JOINT SpineDummy
	{
		OFFSET 0 0 0
		CHANNELS 3 Zrotation Yrotation Xrotation
		JOINT Spine
		{
			OFFSET 0.00000 4.68130 0.00000
			CHANNELS 3 Zrotation Yrotation Xrotation
			JOINT Spine1
			{
				OFFSET -0.00000 10.10138 0.05002
				CHANNELS 3 Zrotation Yrotation Xrotation
				JOINT HEadDummy
				{
					OFFSET 0 0 0
					CHANNELS 3 Zrotation Yrotation Xrotation
					JOINT Head
					{
						OFFSET -0.00000 3.43865 0.00438
						CHANNELS 3 Zrotation Yrotation Xrotation
						End Site
						{
							OFFSET -0.11417 5.02924 0.98962
						}
					}
				}
				JOINT LeftShoulder1Dummy
				{
					OFFSET 0 0 0
					CHANNELS 3 Zrotation Yrotation Xrotation
					JOINT LeftShoulder1
					{
						OFFSET 3.53937 -0.14262 -0.08662
						CHANNELS 3 Zrotation Yrotation Xrotation
						JOINT LeftArm
						{
							OFFSET 4.04833 -0.00133 0.12681
							CHANNELS 3 Zrotation Yrotation Xrotation
							JOINT LeftForeArm
							{
								OFFSET 10.33880 -0.01036 -0.55515
								CHANNELS 3 Zrotation Yrotation Xrotation
								JOINT LeftHand
								{
									OFFSET 8.69677 0.07543 0.40060
									CHANNELS 3 Zrotation Yrotation Xrotation
									End Site
									{
										OFFSET 5.28377 -0.21905 0.59205
									}
								}
							}
						}
					}
				}
				JOINT RightShoulderDummy
				{
					OFFSET 0 0 0
					CHANNELS 3 Zrotation Yrotation Xrotation
					JOINT RightShoulder
					{
						OFFSET -3.53937 -0.14262 -0.08660
						CHANNELS 3 Zrotation Yrotation Xrotation
						JOINT RightArm
						{
							OFFSET -4.04833 -0.00133 0.12683
							CHANNELS 3 Zrotation Yrotation Xrotation
							JOINT RightForeArm
							{
								OFFSET -10.37987 -0.01039 -0.55511
								CHANNELS 3 Zrotation Yrotation Xrotation
								JOINT RightHand
								{
									OFFSET -8.67398 0.07538 0.40058
									CHANNELS 3 Zrotation Yrotation Xrotation
									End Site
									{
										OFFSET -5.24810 -0.21916 0.59204
									}
								}
							}
						}
					}
				}
			}
		}
	}
	JOINT LeftUpLegDummy
	{
		OFFSET 0 0 0
		CHANNELS 3 Zrotation Yrotation Xrotation
		JOINT LeftUpLeg
		{
			OFFSET 3.52197 -3.41223 0.04002
			CHANNELS 3 Zrotation Yrotation Xrotation
			JOINT LeftLeg
			{
				OFFSET -0.00012 -17.42399 1.60337
				CHANNELS 3 Zrotation Yrotation Xrotation
				JOINT LeftFoot
				{
					OFFSET -0.09972 -16.50070 -1.63802
					CHANNELS 3 Zrotation Yrotation Xrotation
					JOINT LeftToes
					{
						OFFSET -0.01575 -1.73823 3.34611
						CHANNELS 3 Zrotation Yrotation Xrotation
						End Site
						{
							OFFSET 0.03150 -0.01868 3.85031
						}
					}
				}
			}
		}
	}
}
MOTION
Frames: 6
Frame Time: 0.033333
1.3644 39.1754 -35.9953 -3.0848 -7.1178 -5.0728 0.0000 0.0000 0.0000 2.7796 -2.5987 -16.4140 -6.8207 -7.6774 35.2697 2.5383 -0.1768 -4.0030 0.0000 -0.0000 0.0000 0.0000 0.0000 0.0000 0.6219 -0.6932 9.6310 4.3156 -1.4906 -0.8809 -0.0000 0.0000 -0.0000 2.3908 1.9508 -9.0592 -0.0000 0.0000 -0.0000 -33.8823 -2.5185 2.4019 -41.7193 -17.5996 -17.6915 -10.4661 5.1541 47.1815 14.7656 -3.5163 -1.1064 -0.0000 0.0000 -0.0000 34.6604 5.1682 3.5276 40.3516 4.3806 -18.3480 10.1053 2.8517 18.9538 -10.8947 1.8379 -0.6630 0.0000 0.0000 0.0000 -0.2255 2.9205 0.2181 2.3342 9.3313 18.9148 0.5265 0.1024 -14.5822 0.0000 0.0000 -0.0000
1.3070 39.2721 -35.1854 -3.4688 -7.1561 -4.4789 0.0000 0.0000 0.0000 3.7037 -2.6799 -16.3119 -5.6406 -8.8122 26.0849 2.1923 -0.1889 -1.8588 0.0000 -0.0000 0.0000 0.0000 0.0000 0.0000 0.9195 -0.8883 9.0414 4.4395 -1.7273 -0.6244 -0.0000 0.0000 -0.0000 2.3469 2.0222 -9.4502 -0.0000 0.0000 -0.0000 -33.7208 -2.5145 2.3923 -41.6859 -18.4084 -16.9221 -10.8293 5.1712 46.4130 14.9321 -3.8296 -1.1574 -0.0000 0.0000 -0.0000 34.6196 5.1490 3.5162 40.6418 4.5355 -18.0601 10.1600 3.8332 18.3928 -11.3385 1.7996 -0.6873 0.0000 0.0000 0.0000 0.1174 3.0242 1.8720 2.1405 9.2842 17.1703 0.5512 0.1085 -15.0825 0.0000 0.0000 -0.0000
1.2305 39.3716 -34.3674 -3.6438 -7.2659 -3.9503 0.0000 0.0000 0.0000 4.3047 -2.5542 -15.4052 -3.8884 -9.6435 15.8625 2.6859 -0.3049 1.7094 0.0000 -0.0000 0.0000 0.0000 0.0000 0.0000 1.1318 -1.0224 8.4843 4.4397 -1.8748 -0.4645 -0.0000 0.0000 -0.0000 2.3544 2.3348 -9.5999 -0.0000 0.0000 -0.0000 -33.5987 -2.5033 2.3804 -41.7008 -19.0325 -16.3960 -11.0604 5.1867 45.7451 14.9966 -4.0549 -1.1902 -0.0000 0.0000 -0.0000 34.5909 5.1376 3.5090 40.7933 4.5970 -17.9553 10.1584 4.3441 18.2405 -11.2397 2.0388 -0.7025 0.0000 0.0000 0.0000 0.2568 3.0712 3.7464 1.9051 9.4080 15.0324 0.6893 0.1139 -15.1683 0.0000 0.0000 -0.0000
1.1262 39.4551 -33.5378 -3.5654 -7.3231 -3.5057 0.0000 0.0000 0.0000 4.0327 -1.0139 -14.0359 -1.7430 -11.0424 5.8913 4.0998 -0.5496 4.4208 0.0000 -0.0000 0.0000 0.0000 0.0000 0.0000 1.0474 -1.1125 7.9085 4.5304 -2.0010 -0.2948 -0.0000 0.0000 -0.0000 2.3606 2.8283 -9.5378 -0.0000 0.0000 -0.0000 -33.5455 -2.4904 2.3720 -41.7992 -19.4863 -15.9210 -11.2712 5.2027 45.0578 14.9754 -4.0424 -1.1869 -0.0000 0.0000 -0.0000 34.5731 5.1286 3.5041 40.7657 4.6371 -18.0054 10.1165 4.3689 18.4180 -10.9654 2.1276 -0.6926 0.0000 0.0000 0.0000 0.2031 3.1160 5.7220 1.5664 9.6207 12.7647 1.0451 0.1233 -14.9998 0.0000 0.0000 -0.0000
0.9911 39.4693 -32.6763 -3.3486 -7.1197 -3.1512 0.0000 0.0000 0.0000 3.2265 1.3915 -13.0661 0.0173 -12.2494 -1.2471 5.6441 -0.7264 3.6808 0.0000 -0.0000 0.0000 0.0000 0.0000 0.0000 0.7451 -1.2289 7.3205 4.7590 -2.1835 -0.1558 -0.0000 0.0000 -0.0000 2.3324 3.1882 -9.2390 -0.0000 0.0000 -0.0000 -33.5975 -2.4960 2.3774 -41.9471 -19.7576 -15.4987 -11.4597 5.2137 44.5553 14.9345 -3.9102 -1.1674 -0.0000 0.0000 -0.0000 34.6014 5.1233 3.5044 40.5831 4.5590 -18.1613 10.0725 4.0707 18.5645 -11.0345 1.8455 -0.6723 0.0000 0.0000 0.0000 0.1791 3.2697 7.4381 1.1041 9.4470 11.2815 1.4827 0.1418 -15.2251 0.0000 0.0000 -0.0000
0.8238 39.4003 -31.7722 -3.1204 -6.6568 -2.9529 0.0000 0.0000 0.0000 3.2330 1.6123 -13.0788 0.2562 -10.5057 -3.3983 6.6380 -0.7089 0.8384 0.0000 -0.0000 0.0000 0.0000 0.0000 0.0000 0.4699 -1.4020 6.8237 4.9680 -2.4101 -0.1112 -0.0000 0.0000 -0.0000 2.2681 3.2594 -8.7544 -0.0000 0.0000 -0.0000 -33.7379 -2.5005 2.3877 -42.0925 -19.8552 -15.3003 -11.5313 5.2144 44.4917 14.9173 -3.9155 -1.1667 -0.0000 0.0000 -0.0000 34.6360 5.1243 3.5075 40.3602 4.3555 -18.4494 10.0040 3.4580 18.8348 -11.2158 1.6805 -0.6691 0.0000 0.0000 0.0000 0.3890 3.6562 8.8722 0.5685 8.5986 10.8987 1.7119 0.1667 -16.0558 0.0000 0.0000 -0.0000
